<svg width="468" height="226" viewBox="0 0 468 226" fill="none" xmlns="http://www.w3.org/2000/svg">
<g clip-path="url(#clip0_2612_80)">
<path d="M620 -162H-151V398H620V-162Z" fill="black"/>
<path d="M132.083 41.8414C78.876 39.9764 24.736 69.8134 7 82.8674C14.468 80.0704 35.004 73.5434 58.34 65.1514C84.477 57.6924 115.281 52.0984 148.885 54.8954C182.49 57.6924 199.292 65.1514 251.566 69.8134C315.974 73.5434 363.58 53.9624 344.911 58.6244C326.242 63.2864 279.569 66.0844 243.165 60.4894C197.425 52.0984 185.29 43.7064 132.083 41.8414Z" fill="url(#paint0_linear_2612_80)"/>
<path d="M266.501 4.54649C226.362 -0.115508 188.712 26.3025 176.889 36.2485C182.801 34.0725 198.358 27.8565 221.695 21.3305C245.031 14.8035 281.436 17.9865 302.905 26.3785C346.778 42.2285 363.58 51.1665 385.049 51.1665C406.519 49.6875 413.987 38.7345 415.854 34.3835L457.859 26.9245L406.519 25.0595C405.586 30.0325 399.985 39.7915 385.049 39.0455C370.114 38.2995 349.578 28.3505 340.244 25.0595C324.375 19.4655 306.639 9.20849 266.501 4.54649Z" fill="url(#paint1_linear_2612_80)"/>
<path d="M421.861 48.4531C377.802 74.5601 320.737 79.8441 297.711 79.2221C306.424 80.4651 313.58 83.8841 353.719 81.0871C393.857 78.2901 406.926 71.7631 421.861 67.1011C441.277 70.0851 456.71 76.4251 462 79.2221C452.043 70.8311 430.076 52.9281 421.861 48.4531Z" fill="url(#paint2_linear_2612_80)"/>
<path d="M322.721 42.2147C317.163 44.0787 179.146 40.3507 179.146 40.3507L191.188 35.6906C208.788 29.1656 220.829 22.6417 256.955 23.5737C288.448 24.5057 328.279 40.3507 322.721 42.2147Z" fill="url(#paint3_linear_2612_80)"/>
<path d="M322.721 42.2147C317.163 44.0787 179.146 40.3507 179.146 40.3507L191.188 35.6906C208.788 29.1656 220.829 22.6417 256.955 23.5737C288.448 24.5057 328.279 40.3507 322.721 42.2147Z" fill="url(#paint4_linear_2612_80)"/>
<path d="M7 211.305H105.329" stroke="white" stroke-width="4.10715"/>
<path d="M363.266 211.305H461.595" stroke="white" stroke-width="4.10715"/>
<path d="M64.51 168.905H7V111.547H64.51V119.747H14.95V160.706H64.51V168.905ZM57.763 144.346H18.906V136.146H57.763V144.346Z" fill="white"/>
<path d="M109.984 168.905H102.035V119.747H73.9199V111.547H138.099V119.747H109.984V168.905Z" fill="white"/>
<path d="M237.336 168.905H229.386V152.506H185.022V144.346H229.386V119.747H200.883C198.169 119.747 195.609 120.293 193.205 121.387C190.8 122.453 188.706 123.92 186.923 125.787C185.139 127.627 183.717 129.787 182.657 132.266C181.623 134.746 181.106 137.4 181.106 140.226V168.905H173.156V140.226C173.156 137.586 173.479 135.053 174.125 132.626C174.798 130.173 175.728 127.893 176.917 125.787C178.133 123.653 179.58 121.72 181.261 119.987C182.967 118.227 184.841 116.72 186.884 115.467C188.952 114.214 191.162 113.254 193.515 112.587C195.868 111.894 198.324 111.547 200.883 111.547H237.336V168.905Z" fill="white"/>
<path d="M310.242 111.547L310.164 140.226C310.164 142.893 309.828 145.453 309.156 147.906C308.51 150.333 307.579 152.613 306.364 154.746C305.175 156.852 303.727 158.786 302.021 160.546C300.34 162.279 298.466 163.772 296.398 165.026C294.355 166.252 292.158 167.212 289.805 167.906C287.453 168.572 284.996 168.905 282.437 168.905H276.581C274.022 168.905 271.553 168.572 269.175 167.906C266.822 167.212 264.612 166.239 262.543 164.986C260.501 163.732 258.639 162.239 256.959 160.506C255.279 158.746 253.831 156.812 252.616 154.706C251.426 152.573 250.496 150.293 249.824 147.866C249.177 145.413 248.854 142.866 248.854 140.226V111.547H256.804V140.226C256.804 143.053 257.321 145.719 258.355 148.226C259.389 150.706 260.798 152.879 262.582 154.746C264.392 156.586 266.499 158.039 268.903 159.106C271.307 160.172 273.867 160.706 276.581 160.706H282.437C285.177 160.706 287.75 160.172 290.154 159.106C292.558 158.039 294.653 156.586 296.436 154.746C298.22 152.879 299.629 150.706 300.663 148.226C301.697 145.719 302.215 143.053 302.215 140.226V111.547H310.242Z" fill="white"/>
<path d="M355.501 168.905H347.551V119.747H319.436V111.547H383.616V119.747H355.501V168.905Z" fill="white"/>
<path d="M460.17 140.226C460.17 144.199 459.562 147.933 458.347 151.426C457.132 154.919 455.4 157.959 453.151 160.546C450.927 163.132 448.252 165.172 445.123 166.666C441.995 168.159 438.518 168.905 434.692 168.905H416.194C412.342 168.905 408.839 168.159 405.685 166.666C402.531 165.172 399.829 163.132 397.58 160.546C395.357 157.959 393.637 154.919 392.422 151.426C391.207 147.933 390.6 144.199 390.6 140.226C390.6 136.28 391.207 132.573 392.422 129.107C393.637 125.613 395.357 122.573 397.58 119.987C399.829 117.374 402.531 115.32 405.685 113.827C408.839 112.307 412.342 111.547 416.194 111.547H434.692C438.518 111.547 441.995 112.307 445.123 113.827C448.252 115.32 450.927 117.374 453.151 119.987C455.4 122.573 457.132 125.613 458.347 129.107C459.562 132.573 460.17 136.28 460.17 140.226ZM452.22 140.226C452.22 137.4 451.819 134.746 451.018 132.266C450.216 129.787 449.053 127.627 447.528 125.787C446.028 123.92 444.193 122.453 442.021 121.387C439.875 120.293 437.432 119.747 434.692 119.747H416.194C413.454 119.747 410.985 120.293 408.787 121.387C406.616 122.453 404.767 123.92 403.242 125.787C401.742 127.627 400.579 129.787 399.752 132.266C398.95 134.746 398.549 137.4 398.549 140.226C398.549 143.053 398.95 145.719 399.752 148.226C400.579 150.706 401.742 152.879 403.242 154.746C404.767 156.586 406.616 158.039 408.787 159.106C410.985 160.172 413.454 160.706 416.194 160.706H434.692C437.432 160.706 439.875 160.172 442.021 159.106C444.193 158.039 446.028 156.586 447.528 154.746C449.053 152.879 450.216 150.706 451.018 148.226C451.819 145.719 452.22 143.053 452.22 140.226Z" fill="white"/>
<mask id="mask0_2612_80" style="mask-type:luminance" maskUnits="userSpaceOnUse" x="5" y="109" width="457" height="62">
<path d="M462 109.547H5V170.547H462V109.547Z" fill="white"/>
<path d="M64.51 168.905H7V111.547H64.51V119.747H14.95V160.706H64.51V168.905ZM57.763 144.346H18.906V136.146H57.763V144.346Z" fill="black"/>
<path d="M109.984 168.905H102.035V119.747H73.9199V111.547H138.099V119.747H109.984V168.905Z" fill="black"/>
<path d="M237.336 168.905H229.386V152.506H185.022V144.346H229.386V119.747H200.883C198.169 119.747 195.609 120.293 193.205 121.387C190.8 122.453 188.706 123.92 186.923 125.787C185.139 127.627 183.717 129.787 182.657 132.266C181.623 134.746 181.106 137.4 181.106 140.226V168.905H173.156V140.226C173.156 137.586 173.479 135.053 174.125 132.626C174.798 130.173 175.728 127.893 176.917 125.787C178.133 123.653 179.58 121.72 181.261 119.987C182.967 118.227 184.841 116.72 186.884 115.467C188.952 114.214 191.162 113.254 193.515 112.587C195.868 111.894 198.324 111.547 200.883 111.547H237.336V168.905Z" fill="black"/>
<path d="M310.242 111.547L310.164 140.226C310.164 142.893 309.828 145.453 309.156 147.906C308.51 150.333 307.579 152.613 306.364 154.746C305.175 156.852 303.727 158.786 302.021 160.546C300.34 162.279 298.466 163.772 296.398 165.026C294.355 166.252 292.158 167.212 289.805 167.906C287.453 168.572 284.996 168.905 282.437 168.905H276.581C274.022 168.905 271.553 168.572 269.175 167.906C266.822 167.212 264.612 166.239 262.543 164.986C260.501 163.732 258.639 162.239 256.959 160.506C255.279 158.746 253.831 156.812 252.616 154.706C251.426 152.573 250.496 150.293 249.824 147.866C249.177 145.413 248.854 142.866 248.854 140.226V111.547H256.804V140.226C256.804 143.053 257.321 145.719 258.355 148.226C259.389 150.706 260.798 152.879 262.582 154.746C264.392 156.586 266.499 158.039 268.903 159.106C271.307 160.172 273.867 160.706 276.581 160.706H282.437C285.177 160.706 287.75 160.172 290.154 159.106C292.558 158.039 294.653 156.586 296.436 154.746C298.22 152.879 299.629 150.706 300.663 148.226C301.697 145.719 302.215 143.053 302.215 140.226V111.547H310.242Z" fill="black"/>
<path d="M355.501 168.905H347.551V119.747H319.436V111.547H383.616V119.747H355.501V168.905Z" fill="black"/>
<path d="M460.17 140.226C460.17 144.199 459.562 147.933 458.347 151.426C457.132 154.919 455.4 157.959 453.151 160.546C450.927 163.132 448.252 165.172 445.123 166.666C441.995 168.159 438.518 168.905 434.692 168.905H416.194C412.342 168.905 408.839 168.159 405.685 166.666C402.531 165.172 399.829 163.132 397.58 160.546C395.357 157.959 393.637 154.919 392.422 151.426C391.207 147.933 390.6 144.199 390.6 140.226C390.6 136.28 391.207 132.573 392.422 129.107C393.637 125.613 395.357 122.573 397.58 119.987C399.829 117.374 402.531 115.32 405.685 113.827C408.839 112.307 412.342 111.547 416.194 111.547H434.692C438.518 111.547 441.995 112.307 445.123 113.827C448.252 115.32 450.927 117.374 453.151 119.987C455.4 122.573 457.132 125.613 458.347 129.107C459.562 132.573 460.17 136.28 460.17 140.226ZM452.22 140.226C452.22 137.4 451.819 134.746 451.018 132.266C450.216 129.787 449.053 127.627 447.528 125.787C446.028 123.92 444.193 122.453 442.021 121.387C439.875 120.293 437.432 119.747 434.692 119.747H416.194C413.454 119.747 410.985 120.293 408.787 121.387C406.616 122.453 404.767 123.92 403.242 125.787C401.742 127.627 400.579 129.787 399.752 132.266C398.95 134.746 398.549 137.4 398.549 140.226C398.549 143.053 398.95 145.719 399.752 148.226C400.579 150.706 401.742 152.879 403.242 154.746C404.767 156.586 406.616 158.039 408.787 159.106C410.985 160.172 413.454 160.706 416.194 160.706H434.692C437.432 160.706 439.875 160.172 442.021 159.106C444.193 158.039 446.028 156.586 447.528 154.746C449.053 152.879 450.216 150.706 451.018 148.226C451.819 145.719 452.22 143.053 452.22 140.226Z" fill="black"/>
</mask>
<g mask="url(#mask0_2612_80)">
<path d="M64.51 168.905H7V111.547H64.51V119.747H14.95V160.706H64.51V168.905ZM57.763 144.346H18.906V136.146H57.763V144.346Z" stroke="white" stroke-width="2.7381"/>
</g>
<mask id="mask1_2612_80" style="mask-type:luminance" maskUnits="userSpaceOnUse" x="5" y="109" width="457" height="62">
<path d="M462 109.547H5V170.547H462V109.547Z" fill="white"/>
<path d="M64.51 168.905H7V111.547H64.51V119.747H14.95V160.706H64.51V168.905ZM57.763 144.346H18.906V136.146H57.763V144.346Z" fill="black"/>
<path d="M109.984 168.905H102.035V119.747H73.9199V111.547H138.099V119.747H109.984V168.905Z" fill="black"/>
<path d="M237.336 168.905H229.386V152.506H185.022V144.346H229.386V119.747H200.883C198.169 119.747 195.609 120.293 193.205 121.387C190.8 122.453 188.706 123.92 186.923 125.787C185.139 127.627 183.717 129.787 182.657 132.266C181.623 134.746 181.106 137.4 181.106 140.226V168.905H173.156V140.226C173.156 137.586 173.479 135.053 174.125 132.626C174.798 130.173 175.728 127.893 176.917 125.787C178.133 123.653 179.58 121.72 181.261 119.987C182.967 118.227 184.841 116.72 186.884 115.467C188.952 114.214 191.162 113.254 193.515 112.587C195.868 111.894 198.324 111.547 200.883 111.547H237.336V168.905Z" fill="black"/>
<path d="M310.242 111.547L310.164 140.226C310.164 142.893 309.828 145.453 309.156 147.906C308.51 150.333 307.579 152.613 306.364 154.746C305.175 156.852 303.727 158.786 302.021 160.546C300.34 162.279 298.466 163.772 296.398 165.026C294.355 166.252 292.158 167.212 289.805 167.906C287.453 168.572 284.996 168.905 282.437 168.905H276.581C274.022 168.905 271.553 168.572 269.175 167.906C266.822 167.212 264.612 166.239 262.543 164.986C260.501 163.732 258.639 162.239 256.959 160.506C255.279 158.746 253.831 156.812 252.616 154.706C251.426 152.573 250.496 150.293 249.824 147.866C249.177 145.413 248.854 142.866 248.854 140.226V111.547H256.804V140.226C256.804 143.053 257.321 145.719 258.355 148.226C259.389 150.706 260.798 152.879 262.582 154.746C264.392 156.586 266.499 158.039 268.903 159.106C271.307 160.172 273.867 160.706 276.581 160.706H282.437C285.177 160.706 287.75 160.172 290.154 159.106C292.558 158.039 294.653 156.586 296.436 154.746C298.22 152.879 299.629 150.706 300.663 148.226C301.697 145.719 302.215 143.053 302.215 140.226V111.547H310.242Z" fill="black"/>
<path d="M355.501 168.905H347.551V119.747H319.436V111.547H383.616V119.747H355.501V168.905Z" fill="black"/>
<path d="M460.17 140.226C460.17 144.199 459.562 147.933 458.347 151.426C457.132 154.919 455.4 157.959 453.151 160.546C450.927 163.132 448.252 165.172 445.123 166.666C441.995 168.159 438.518 168.905 434.692 168.905H416.194C412.342 168.905 408.839 168.159 405.685 166.666C402.531 165.172 399.829 163.132 397.58 160.546C395.357 157.959 393.637 154.919 392.422 151.426C391.207 147.933 390.6 144.199 390.6 140.226C390.6 136.28 391.207 132.573 392.422 129.107C393.637 125.613 395.357 122.573 397.58 119.987C399.829 117.374 402.531 115.32 405.685 113.827C408.839 112.307 412.342 111.547 416.194 111.547H434.692C438.518 111.547 441.995 112.307 445.123 113.827C448.252 115.32 450.927 117.374 453.151 119.987C455.4 122.573 457.132 125.613 458.347 129.107C459.562 132.573 460.17 136.28 460.17 140.226ZM452.22 140.226C452.22 137.4 451.819 134.746 451.018 132.266C450.216 129.787 449.053 127.627 447.528 125.787C446.028 123.92 444.193 122.453 442.021 121.387C439.875 120.293 437.432 119.747 434.692 119.747H416.194C413.454 119.747 410.985 120.293 408.787 121.387C406.616 122.453 404.767 123.92 403.242 125.787C401.742 127.627 400.579 129.787 399.752 132.266C398.95 134.746 398.549 137.4 398.549 140.226C398.549 143.053 398.95 145.719 399.752 148.226C400.579 150.706 401.742 152.879 403.242 154.746C404.767 156.586 406.616 158.039 408.787 159.106C410.985 160.172 413.454 160.706 416.194 160.706H434.692C437.432 160.706 439.875 160.172 442.021 159.106C444.193 158.039 446.028 156.586 447.528 154.746C449.053 152.879 450.216 150.706 451.018 148.226C451.819 145.719 452.22 143.053 452.22 140.226Z" fill="black"/>
</mask>
<g mask="url(#mask1_2612_80)">
<path d="M109.984 168.905H102.035V119.747H73.9199V111.547H138.099V119.747H109.984V168.905Z" stroke="white" stroke-width="2.7381"/>
</g>
<mask id="mask2_2612_80" style="mask-type:luminance" maskUnits="userSpaceOnUse" x="5" y="109" width="457" height="62">
<path d="M462 109.547H5V170.547H462V109.547Z" fill="white"/>
<path d="M64.51 168.905H7V111.547H64.51V119.747H14.95V160.706H64.51V168.905ZM57.763 144.346H18.906V136.146H57.763V144.346Z" fill="black"/>
<path d="M109.984 168.905H102.035V119.747H73.9199V111.547H138.099V119.747H109.984V168.905Z" fill="black"/>
<path d="M237.336 168.905H229.386V152.506H185.022V144.346H229.386V119.747H200.883C198.169 119.747 195.609 120.293 193.205 121.387C190.8 122.453 188.706 123.92 186.923 125.787C185.139 127.627 183.717 129.787 182.657 132.266C181.623 134.746 181.106 137.4 181.106 140.226V168.905H173.156V140.226C173.156 137.586 173.479 135.053 174.125 132.626C174.798 130.173 175.728 127.893 176.917 125.787C178.133 123.653 179.58 121.72 181.261 119.987C182.967 118.227 184.841 116.72 186.884 115.467C188.952 114.214 191.162 113.254 193.515 112.587C195.868 111.894 198.324 111.547 200.883 111.547H237.336V168.905Z" fill="black"/>
<path d="M310.242 111.547L310.164 140.226C310.164 142.893 309.828 145.453 309.156 147.906C308.51 150.333 307.579 152.613 306.364 154.746C305.175 156.852 303.727 158.786 302.021 160.546C300.34 162.279 298.466 163.772 296.398 165.026C294.355 166.252 292.158 167.212 289.805 167.906C287.453 168.572 284.996 168.905 282.437 168.905H276.581C274.022 168.905 271.553 168.572 269.175 167.906C266.822 167.212 264.612 166.239 262.543 164.986C260.501 163.732 258.639 162.239 256.959 160.506C255.279 158.746 253.831 156.812 252.616 154.706C251.426 152.573 250.496 150.293 249.824 147.866C249.177 145.413 248.854 142.866 248.854 140.226V111.547H256.804V140.226C256.804 143.053 257.321 145.719 258.355 148.226C259.389 150.706 260.798 152.879 262.582 154.746C264.392 156.586 266.499 158.039 268.903 159.106C271.307 160.172 273.867 160.706 276.581 160.706H282.437C285.177 160.706 287.75 160.172 290.154 159.106C292.558 158.039 294.653 156.586 296.436 154.746C298.22 152.879 299.629 150.706 300.663 148.226C301.697 145.719 302.215 143.053 302.215 140.226V111.547H310.242Z" fill="black"/>
<path d="M355.501 168.905H347.551V119.747H319.436V111.547H383.616V119.747H355.501V168.905Z" fill="black"/>
<path d="M460.17 140.226C460.17 144.199 459.562 147.933 458.347 151.426C457.132 154.919 455.4 157.959 453.151 160.546C450.927 163.132 448.252 165.172 445.123 166.666C441.995 168.159 438.518 168.905 434.692 168.905H416.194C412.342 168.905 408.839 168.159 405.685 166.666C402.531 165.172 399.829 163.132 397.58 160.546C395.357 157.959 393.637 154.919 392.422 151.426C391.207 147.933 390.6 144.199 390.6 140.226C390.6 136.28 391.207 132.573 392.422 129.107C393.637 125.613 395.357 122.573 397.58 119.987C399.829 117.374 402.531 115.32 405.685 113.827C408.839 112.307 412.342 111.547 416.194 111.547H434.692C438.518 111.547 441.995 112.307 445.123 113.827C448.252 115.32 450.927 117.374 453.151 119.987C455.4 122.573 457.132 125.613 458.347 129.107C459.562 132.573 460.17 136.28 460.17 140.226ZM452.22 140.226C452.22 137.4 451.819 134.746 451.018 132.266C450.216 129.787 449.053 127.627 447.528 125.787C446.028 123.92 444.193 122.453 442.021 121.387C439.875 120.293 437.432 119.747 434.692 119.747H416.194C413.454 119.747 410.985 120.293 408.787 121.387C406.616 122.453 404.767 123.92 403.242 125.787C401.742 127.627 400.579 129.787 399.752 132.266C398.95 134.746 398.549 137.4 398.549 140.226C398.549 143.053 398.95 145.719 399.752 148.226C400.579 150.706 401.742 152.879 403.242 154.746C404.767 156.586 406.616 158.039 408.787 159.106C410.985 160.172 413.454 160.706 416.194 160.706H434.692C437.432 160.706 439.875 160.172 442.021 159.106C444.193 158.039 446.028 156.586 447.528 154.746C449.053 152.879 450.216 150.706 451.018 148.226C451.819 145.719 452.22 143.053 452.22 140.226Z" fill="black"/>
</mask>
<g mask="url(#mask2_2612_80)">
<path d="M237.336 168.905H229.386V152.506H185.022V144.346H229.386V119.747H200.883C198.169 119.747 195.609 120.293 193.205 121.387C190.8 122.453 188.706 123.92 186.923 125.787C185.139 127.627 183.717 129.787 182.657 132.266C181.623 134.746 181.106 137.4 181.106 140.226V168.905H173.156V140.226C173.156 137.586 173.479 135.053 174.125 132.626C174.798 130.173 175.728 127.893 176.917 125.787C178.133 123.653 179.58 121.72 181.261 119.987C182.967 118.227 184.841 116.72 186.884 115.467C188.952 114.214 191.162 113.254 193.515 112.587C195.868 111.894 198.324 111.547 200.883 111.547H237.336V168.905Z" stroke="white" stroke-width="2.7381"/>
</g>
<mask id="mask3_2612_80" style="mask-type:luminance" maskUnits="userSpaceOnUse" x="5" y="109" width="457" height="62">
<path d="M462 109.547H5V170.547H462V109.547Z" fill="white"/>
<path d="M64.51 168.905H7V111.547H64.51V119.747H14.95V160.706H64.51V168.905ZM57.763 144.346H18.906V136.146H57.763V144.346Z" fill="black"/>
<path d="M109.984 168.905H102.035V119.747H73.9199V111.547H138.099V119.747H109.984V168.905Z" fill="black"/>
<path d="M237.336 168.905H229.386V152.506H185.022V144.346H229.386V119.747H200.883C198.169 119.747 195.609 120.293 193.205 121.387C190.8 122.453 188.706 123.92 186.923 125.787C185.139 127.627 183.717 129.787 182.657 132.266C181.623 134.746 181.106 137.4 181.106 140.226V168.905H173.156V140.226C173.156 137.586 173.479 135.053 174.125 132.626C174.798 130.173 175.728 127.893 176.917 125.787C178.133 123.653 179.58 121.72 181.261 119.987C182.967 118.227 184.841 116.72 186.884 115.467C188.952 114.214 191.162 113.254 193.515 112.587C195.868 111.894 198.324 111.547 200.883 111.547H237.336V168.905Z" fill="black"/>
<path d="M310.242 111.547L310.164 140.226C310.164 142.893 309.828 145.453 309.156 147.906C308.51 150.333 307.579 152.613 306.364 154.746C305.175 156.852 303.727 158.786 302.021 160.546C300.34 162.279 298.466 163.772 296.398 165.026C294.355 166.252 292.158 167.212 289.805 167.906C287.453 168.572 284.996 168.905 282.437 168.905H276.581C274.022 168.905 271.553 168.572 269.175 167.906C266.822 167.212 264.612 166.239 262.543 164.986C260.501 163.732 258.639 162.239 256.959 160.506C255.279 158.746 253.831 156.812 252.616 154.706C251.426 152.573 250.496 150.293 249.824 147.866C249.177 145.413 248.854 142.866 248.854 140.226V111.547H256.804V140.226C256.804 143.053 257.321 145.719 258.355 148.226C259.389 150.706 260.798 152.879 262.582 154.746C264.392 156.586 266.499 158.039 268.903 159.106C271.307 160.172 273.867 160.706 276.581 160.706H282.437C285.177 160.706 287.75 160.172 290.154 159.106C292.558 158.039 294.653 156.586 296.436 154.746C298.22 152.879 299.629 150.706 300.663 148.226C301.697 145.719 302.215 143.053 302.215 140.226V111.547H310.242Z" fill="black"/>
<path d="M355.501 168.905H347.551V119.747H319.436V111.547H383.616V119.747H355.501V168.905Z" fill="black"/>
<path d="M460.17 140.226C460.17 144.199 459.562 147.933 458.347 151.426C457.132 154.919 455.4 157.959 453.151 160.546C450.927 163.132 448.252 165.172 445.123 166.666C441.995 168.159 438.518 168.905 434.692 168.905H416.194C412.342 168.905 408.839 168.159 405.685 166.666C402.531 165.172 399.829 163.132 397.58 160.546C395.357 157.959 393.637 154.919 392.422 151.426C391.207 147.933 390.6 144.199 390.6 140.226C390.6 136.28 391.207 132.573 392.422 129.107C393.637 125.613 395.357 122.573 397.58 119.987C399.829 117.374 402.531 115.32 405.685 113.827C408.839 112.307 412.342 111.547 416.194 111.547H434.692C438.518 111.547 441.995 112.307 445.123 113.827C448.252 115.32 450.927 117.374 453.151 119.987C455.4 122.573 457.132 125.613 458.347 129.107C459.562 132.573 460.17 136.28 460.17 140.226ZM452.22 140.226C452.22 137.4 451.819 134.746 451.018 132.266C450.216 129.787 449.053 127.627 447.528 125.787C446.028 123.92 444.193 122.453 442.021 121.387C439.875 120.293 437.432 119.747 434.692 119.747H416.194C413.454 119.747 410.985 120.293 408.787 121.387C406.616 122.453 404.767 123.92 403.242 125.787C401.742 127.627 400.579 129.787 399.752 132.266C398.95 134.746 398.549 137.4 398.549 140.226C398.549 143.053 398.95 145.719 399.752 148.226C400.579 150.706 401.742 152.879 403.242 154.746C404.767 156.586 406.616 158.039 408.787 159.106C410.985 160.172 413.454 160.706 416.194 160.706H434.692C437.432 160.706 439.875 160.172 442.021 159.106C444.193 158.039 446.028 156.586 447.528 154.746C449.053 152.879 450.216 150.706 451.018 148.226C451.819 145.719 452.22 143.053 452.22 140.226Z" fill="black"/>
</mask>
<g mask="url(#mask3_2612_80)">
<path d="M310.242 111.547L310.164 140.226C310.164 142.893 309.828 145.453 309.156 147.906C308.51 150.333 307.579 152.613 306.364 154.746C305.175 156.852 303.727 158.786 302.021 160.546C300.34 162.279 298.466 163.772 296.398 165.026C294.355 166.252 292.158 167.212 289.805 167.906C287.453 168.572 284.996 168.905 282.437 168.905H276.581C274.022 168.905 271.553 168.572 269.175 167.906C266.822 167.212 264.612 166.239 262.543 164.986C260.501 163.732 258.639 162.239 256.959 160.506C255.279 158.746 253.831 156.812 252.616 154.706C251.426 152.573 250.496 150.293 249.824 147.866C249.177 145.413 248.854 142.866 248.854 140.226V111.547H256.804V140.226C256.804 143.053 257.321 145.719 258.355 148.226C259.389 150.706 260.798 152.879 262.582 154.746C264.392 156.586 266.499 158.039 268.903 159.106C271.307 160.172 273.867 160.706 276.581 160.706H282.437C285.177 160.706 287.75 160.172 290.154 159.106C292.558 158.039 294.653 156.586 296.436 154.746C298.22 152.879 299.629 150.706 300.663 148.226C301.697 145.719 302.215 143.053 302.215 140.226V111.547H310.242Z" stroke="white" stroke-width="2.7381"/>
</g>
<mask id="mask4_2612_80" style="mask-type:luminance" maskUnits="userSpaceOnUse" x="5" y="109" width="457" height="62">
<path d="M462 109.547H5V170.547H462V109.547Z" fill="white"/>
<path d="M64.51 168.905H7V111.547H64.51V119.747H14.95V160.706H64.51V168.905ZM57.763 144.346H18.906V136.146H57.763V144.346Z" fill="black"/>
<path d="M109.984 168.905H102.035V119.747H73.9199V111.547H138.099V119.747H109.984V168.905Z" fill="black"/>
<path d="M237.336 168.905H229.386V152.506H185.022V144.346H229.386V119.747H200.883C198.169 119.747 195.609 120.293 193.205 121.387C190.8 122.453 188.706 123.92 186.923 125.787C185.139 127.627 183.717 129.787 182.657 132.266C181.623 134.746 181.106 137.4 181.106 140.226V168.905H173.156V140.226C173.156 137.586 173.479 135.053 174.125 132.626C174.798 130.173 175.728 127.893 176.917 125.787C178.133 123.653 179.58 121.72 181.261 119.987C182.967 118.227 184.841 116.72 186.884 115.467C188.952 114.214 191.162 113.254 193.515 112.587C195.868 111.894 198.324 111.547 200.883 111.547H237.336V168.905Z" fill="black"/>
<path d="M310.242 111.547L310.164 140.226C310.164 142.893 309.828 145.453 309.156 147.906C308.51 150.333 307.579 152.613 306.364 154.746C305.175 156.852 303.727 158.786 302.021 160.546C300.34 162.279 298.466 163.772 296.398 165.026C294.355 166.252 292.158 167.212 289.805 167.906C287.453 168.572 284.996 168.905 282.437 168.905H276.581C274.022 168.905 271.553 168.572 269.175 167.906C266.822 167.212 264.612 166.239 262.543 164.986C260.501 163.732 258.639 162.239 256.959 160.506C255.279 158.746 253.831 156.812 252.616 154.706C251.426 152.573 250.496 150.293 249.824 147.866C249.177 145.413 248.854 142.866 248.854 140.226V111.547H256.804V140.226C256.804 143.053 257.321 145.719 258.355 148.226C259.389 150.706 260.798 152.879 262.582 154.746C264.392 156.586 266.499 158.039 268.903 159.106C271.307 160.172 273.867 160.706 276.581 160.706H282.437C285.177 160.706 287.75 160.172 290.154 159.106C292.558 158.039 294.653 156.586 296.436 154.746C298.22 152.879 299.629 150.706 300.663 148.226C301.697 145.719 302.215 143.053 302.215 140.226V111.547H310.242Z" fill="black"/>
<path d="M355.501 168.905H347.551V119.747H319.436V111.547H383.616V119.747H355.501V168.905Z" fill="black"/>
<path d="M460.17 140.226C460.17 144.199 459.562 147.933 458.347 151.426C457.132 154.919 455.4 157.959 453.151 160.546C450.927 163.132 448.252 165.172 445.123 166.666C441.995 168.159 438.518 168.905 434.692 168.905H416.194C412.342 168.905 408.839 168.159 405.685 166.666C402.531 165.172 399.829 163.132 397.58 160.546C395.357 157.959 393.637 154.919 392.422 151.426C391.207 147.933 390.6 144.199 390.6 140.226C390.6 136.28 391.207 132.573 392.422 129.107C393.637 125.613 395.357 122.573 397.58 119.987C399.829 117.374 402.531 115.32 405.685 113.827C408.839 112.307 412.342 111.547 416.194 111.547H434.692C438.518 111.547 441.995 112.307 445.123 113.827C448.252 115.32 450.927 117.374 453.151 119.987C455.4 122.573 457.132 125.613 458.347 129.107C459.562 132.573 460.17 136.28 460.17 140.226ZM452.22 140.226C452.22 137.4 451.819 134.746 451.018 132.266C450.216 129.787 449.053 127.627 447.528 125.787C446.028 123.92 444.193 122.453 442.021 121.387C439.875 120.293 437.432 119.747 434.692 119.747H416.194C413.454 119.747 410.985 120.293 408.787 121.387C406.616 122.453 404.767 123.92 403.242 125.787C401.742 127.627 400.579 129.787 399.752 132.266C398.95 134.746 398.549 137.4 398.549 140.226C398.549 143.053 398.95 145.719 399.752 148.226C400.579 150.706 401.742 152.879 403.242 154.746C404.767 156.586 406.616 158.039 408.787 159.106C410.985 160.172 413.454 160.706 416.194 160.706H434.692C437.432 160.706 439.875 160.172 442.021 159.106C444.193 158.039 446.028 156.586 447.528 154.746C449.053 152.879 450.216 150.706 451.018 148.226C451.819 145.719 452.22 143.053 452.22 140.226Z" fill="black"/>
</mask>
<g mask="url(#mask4_2612_80)">
<path d="M355.501 168.905H347.551V119.747H319.436V111.547H383.616V119.747H355.501V168.905Z" stroke="white" stroke-width="2.7381"/>
</g>
<mask id="mask5_2612_80" style="mask-type:luminance" maskUnits="userSpaceOnUse" x="5" y="109" width="457" height="62">
<path d="M462 109.547H5V170.547H462V109.547Z" fill="white"/>
<path d="M64.51 168.905H7V111.547H64.51V119.747H14.95V160.706H64.51V168.905ZM57.763 144.346H18.906V136.146H57.763V144.346Z" fill="black"/>
<path d="M109.984 168.905H102.035V119.747H73.9199V111.547H138.099V119.747H109.984V168.905Z" fill="black"/>
<path d="M237.336 168.905H229.386V152.506H185.022V144.346H229.386V119.747H200.883C198.169 119.747 195.609 120.293 193.205 121.387C190.8 122.453 188.706 123.92 186.923 125.787C185.139 127.627 183.717 129.787 182.657 132.266C181.623 134.746 181.106 137.4 181.106 140.226V168.905H173.156V140.226C173.156 137.586 173.479 135.053 174.125 132.626C174.798 130.173 175.728 127.893 176.917 125.787C178.133 123.653 179.58 121.72 181.261 119.987C182.967 118.227 184.841 116.72 186.884 115.467C188.952 114.214 191.162 113.254 193.515 112.587C195.868 111.894 198.324 111.547 200.883 111.547H237.336V168.905Z" fill="black"/>
<path d="M310.242 111.547L310.164 140.226C310.164 142.893 309.828 145.453 309.156 147.906C308.51 150.333 307.579 152.613 306.364 154.746C305.175 156.852 303.727 158.786 302.021 160.546C300.34 162.279 298.466 163.772 296.398 165.026C294.355 166.252 292.158 167.212 289.805 167.906C287.453 168.572 284.996 168.905 282.437 168.905H276.581C274.022 168.905 271.553 168.572 269.175 167.906C266.822 167.212 264.612 166.239 262.543 164.986C260.501 163.732 258.639 162.239 256.959 160.506C255.279 158.746 253.831 156.812 252.616 154.706C251.426 152.573 250.496 150.293 249.824 147.866C249.177 145.413 248.854 142.866 248.854 140.226V111.547H256.804V140.226C256.804 143.053 257.321 145.719 258.355 148.226C259.389 150.706 260.798 152.879 262.582 154.746C264.392 156.586 266.499 158.039 268.903 159.106C271.307 160.172 273.867 160.706 276.581 160.706H282.437C285.177 160.706 287.75 160.172 290.154 159.106C292.558 158.039 294.653 156.586 296.436 154.746C298.22 152.879 299.629 150.706 300.663 148.226C301.697 145.719 302.215 143.053 302.215 140.226V111.547H310.242Z" fill="black"/>
<path d="M355.501 168.905H347.551V119.747H319.436V111.547H383.616V119.747H355.501V168.905Z" fill="black"/>
<path d="M460.17 140.226C460.17 144.199 459.562 147.933 458.347 151.426C457.132 154.919 455.4 157.959 453.151 160.546C450.927 163.132 448.252 165.172 445.123 166.666C441.995 168.159 438.518 168.905 434.692 168.905H416.194C412.342 168.905 408.839 168.159 405.685 166.666C402.531 165.172 399.829 163.132 397.58 160.546C395.357 157.959 393.637 154.919 392.422 151.426C391.207 147.933 390.6 144.199 390.6 140.226C390.6 136.28 391.207 132.573 392.422 129.107C393.637 125.613 395.357 122.573 397.58 119.987C399.829 117.374 402.531 115.32 405.685 113.827C408.839 112.307 412.342 111.547 416.194 111.547H434.692C438.518 111.547 441.995 112.307 445.123 113.827C448.252 115.32 450.927 117.374 453.151 119.987C455.4 122.573 457.132 125.613 458.347 129.107C459.562 132.573 460.17 136.28 460.17 140.226ZM452.22 140.226C452.22 137.4 451.819 134.746 451.018 132.266C450.216 129.787 449.053 127.627 447.528 125.787C446.028 123.92 444.193 122.453 442.021 121.387C439.875 120.293 437.432 119.747 434.692 119.747H416.194C413.454 119.747 410.985 120.293 408.787 121.387C406.616 122.453 404.767 123.92 403.242 125.787C401.742 127.627 400.579 129.787 399.752 132.266C398.95 134.746 398.549 137.4 398.549 140.226C398.549 143.053 398.95 145.719 399.752 148.226C400.579 150.706 401.742 152.879 403.242 154.746C404.767 156.586 406.616 158.039 408.787 159.106C410.985 160.172 413.454 160.706 416.194 160.706H434.692C437.432 160.706 439.875 160.172 442.021 159.106C444.193 158.039 446.028 156.586 447.528 154.746C449.053 152.879 450.216 150.706 451.018 148.226C451.819 145.719 452.22 143.053 452.22 140.226Z" fill="black"/>
</mask>
<g mask="url(#mask5_2612_80)">
<path d="M460.17 140.226C460.17 144.199 459.562 147.933 458.347 151.426C457.132 154.919 455.4 157.959 453.151 160.546C450.927 163.132 448.252 165.172 445.123 166.666C441.995 168.159 438.518 168.905 434.692 168.905H416.194C412.342 168.905 408.839 168.159 405.685 166.666C402.531 165.172 399.829 163.132 397.58 160.546C395.357 157.959 393.637 154.919 392.422 151.426C391.207 147.933 390.6 144.199 390.6 140.226C390.6 136.28 391.207 132.573 392.422 129.107C393.637 125.613 395.357 122.573 397.58 119.987C399.829 117.374 402.531 115.32 405.685 113.827C408.839 112.307 412.342 111.547 416.194 111.547H434.692C438.518 111.547 441.995 112.307 445.123 113.827C448.252 115.32 450.927 117.374 453.151 119.987C455.4 122.573 457.132 125.613 458.347 129.107C459.562 132.573 460.17 136.28 460.17 140.226ZM452.22 140.226C452.22 137.4 451.819 134.746 451.018 132.266C450.216 129.787 449.053 127.627 447.528 125.787C446.028 123.92 444.193 122.453 442.021 121.387C439.875 120.293 437.432 119.747 434.692 119.747H416.194C413.454 119.747 410.985 120.293 408.787 121.387C406.616 122.453 404.767 123.92 403.242 125.787C401.742 127.627 400.579 129.787 399.752 132.266C398.95 134.746 398.549 137.4 398.549 140.226C398.549 143.053 398.95 145.719 399.752 148.226C400.579 150.706 401.742 152.879 403.242 154.746C404.767 156.586 406.616 158.039 408.787 159.106C410.985 160.172 413.454 160.706 416.194 160.706H434.692C437.432 160.706 439.875 160.172 442.021 159.106C444.193 158.039 446.028 156.586 447.528 154.746C449.053 152.879 450.216 150.706 451.018 148.226C451.819 145.719 452.22 143.053 452.22 140.226Z" stroke="white" stroke-width="2.7381"/>
</g>
<path d="M183.363 215.836C183.363 216.756 183.192 217.617 182.85 218.419C182.508 219.211 182.037 219.906 181.438 220.505C180.85 221.093 180.155 221.558 179.353 221.901C178.561 222.243 177.711 222.414 176.802 222.414H156.811V219.125H176.802C177.262 219.125 177.689 219.04 178.085 218.868C178.481 218.697 178.823 218.462 179.112 218.163C179.411 217.863 179.647 217.515 179.818 217.12C179.989 216.713 180.075 216.285 180.075 215.836C180.075 215.387 179.989 214.965 179.818 214.569C179.647 214.173 179.411 213.825 179.112 213.526C178.823 213.226 178.481 212.991 178.085 212.82C177.689 212.649 177.262 212.563 176.802 212.563H163.389C162.491 212.563 161.64 212.392 160.838 212.05C160.036 211.708 159.336 211.242 158.737 210.654C158.148 210.055 157.678 209.355 157.325 208.552C156.983 207.75 156.811 206.895 156.811 205.985C156.811 205.087 156.983 204.237 157.325 203.435C157.678 202.632 158.148 201.937 158.737 201.349C159.336 200.75 160.036 200.279 160.838 199.937C161.64 199.584 162.491 199.408 163.389 199.408H181.727V202.697H163.389C162.94 202.697 162.512 202.782 162.106 202.953C161.71 203.124 161.362 203.36 161.063 203.659C160.763 203.959 160.528 204.312 160.357 204.718C160.186 205.114 160.1 205.536 160.1 205.985C160.1 206.435 160.186 206.863 160.357 207.269C160.528 207.665 160.763 208.012 161.063 208.312C161.362 208.611 161.71 208.847 162.106 209.018C162.512 209.189 162.94 209.274 163.389 209.274H176.802C177.711 209.274 178.561 209.451 179.353 209.804C180.155 210.146 180.85 210.617 181.438 211.216C182.037 211.804 182.508 212.499 182.85 213.301C183.192 214.093 183.363 214.938 183.363 215.836ZM166.085 192.91L170.079 194.98L174.09 192.91L175.181 194.514L170.079 197.932L164.994 194.514L166.085 192.91ZM212.611 199.408L200.514 222.414H196.76L184.679 199.408H188.417L198.637 218.868L208.857 199.408H212.611ZM241.008 222.414H237.719V215.836H219.365V212.563H237.719V202.697H225.927C224.804 202.697 223.745 202.916 222.75 203.354C221.756 203.782 220.889 204.37 220.151 205.119C219.413 205.857 218.825 206.723 218.387 207.718C217.959 208.713 217.745 209.777 217.745 210.911V222.414H214.456V210.911C214.456 209.852 214.59 208.836 214.857 207.863C215.135 206.879 215.52 205.964 216.012 205.119C216.515 204.263 217.114 203.488 217.809 202.793C218.515 202.087 219.29 201.483 220.135 200.98C220.991 200.477 221.905 200.092 222.879 199.825C223.852 199.547 224.868 199.408 225.927 199.408H241.008V222.414ZM273.079 222.414H268.635L261.736 215.836H251.661V212.595H264.865C265.549 212.595 266.191 212.467 266.79 212.21C267.389 211.943 267.908 211.585 268.346 211.135C268.795 210.686 269.148 210.162 269.405 209.563C269.662 208.954 269.79 208.306 269.79 207.622C269.79 206.937 269.662 206.296 269.405 205.697C269.148 205.098 268.795 204.579 268.346 204.14C267.908 203.691 267.389 203.338 266.79 203.082C266.191 202.825 265.549 202.697 264.865 202.697H249.816V222.414H246.527V199.408H264.865C265.998 199.408 267.063 199.627 268.057 200.065C269.052 200.493 269.918 201.082 270.656 201.83C271.405 202.568 271.993 203.435 272.421 204.429C272.86 205.424 273.079 206.488 273.079 207.622C273.079 208.649 272.903 209.622 272.55 210.542C272.197 211.451 271.71 212.269 271.09 212.997C270.469 213.713 269.737 214.312 268.892 214.793C268.057 215.264 267.154 215.58 266.18 215.74L273.079 222.414ZM303.45 222.414H300.161V215.836H281.807V212.563H300.161V202.697H288.369C287.246 202.697 286.187 202.916 285.192 203.354C284.197 203.782 283.331 204.37 282.593 205.119C281.855 205.857 281.267 206.723 280.828 207.718C280.4 208.713 280.186 209.777 280.186 210.911V222.414H276.897V210.911C276.897 209.852 277.031 208.836 277.299 207.863C277.577 206.879 277.962 205.964 278.454 205.119C278.956 204.263 279.555 203.488 280.251 202.793C280.956 202.087 281.732 201.483 282.577 200.98C283.432 200.477 284.347 200.092 285.32 199.825C286.294 199.547 287.31 199.408 288.369 199.408H303.45V222.414Z" fill="white"/>
</g>
<defs>
<linearGradient id="paint0_linear_2612_80" x1="338.377" y1="61.8084" x2="22.87" y2="73.9564" gradientUnits="userSpaceOnUse">
<stop stop-color="#FF0000"/>
<stop offset="1" stop-color="#FF7474"/>
</linearGradient>
<linearGradient id="paint1_linear_2612_80" x1="451.325" y1="43.1615" x2="189.97" y2="3.91349" gradientUnits="userSpaceOnUse">
<stop stop-color="#FF0000"/>
<stop offset="1" stop-color="#FF4F4F"/>
</linearGradient>
<linearGradient id="paint2_linear_2612_80" x1="447.998" y1="65.6221" x2="310.784" y2="82.4431" gradientUnits="userSpaceOnUse">
<stop stop-color="#FF0000"/>
<stop offset="1" stop-color="#FF5B5B"/>
</linearGradient>
<linearGradient id="paint3_linear_2612_80" x1="254.639" y1="23.5737" x2="254.639" y2="41.2827" gradientUnits="userSpaceOnUse">
<stop stop-color="#D1D1D1"/>
<stop offset="0.583333" stop-color="#424242"/>
<stop offset="1"/>
</linearGradient>
<linearGradient id="paint4_linear_2612_80" x1="254.639" y1="23.5737" x2="254.639" y2="41.2827" gradientUnits="userSpaceOnUse">
<stop stop-color="#D1D1D1"/>
<stop offset="0.583333" stop-color="#424242"/>
<stop offset="1" stop-color="#121212"/>
</linearGradient>
<clipPath id="clip0_2612_80">
<rect width="468" height="226" fill="white"/>
</clipPath>
</defs>
</svg>
